<?xml version="1.0" encoding="utf-8"?>
<!DOCTYPE svg PUBLIC "-//W3C//DTD SVG 1.0//EN" "http://www.w3.org/TR/2001/REC-SVG-20010904/DTD/svg10.dtd">
<svg version="1.0" xmlns="http://www.w3.org/2000/svg" width="1280px" height="281px" viewBox="0 0 1280 281" preserveAspectRatio="xMidYMid meet">
 <g fill="#ffffff">
  <path d="M0 140.5 l0 -140.5 640 0 640 0 0 140.5 0 140.5 -640 0 -640 0 0 -140.5z m124.6 92.8 c11.5 -3.8 23.5 -13.8 27.4 -22.6 1.3 -3 4.1 -16.9 7.6 -37.5 3 -18 6.6 -39.2 7.9 -47.2 l2.5 -14.5 -3.4 -7.2 c-4.2 -8.7 -10.5 -15.2 -18.9 -19.4 -10.1 -5.1 -16 -5.9 -48.5 -5.9 -25.9 0 -29.3 -0.2 -29.9 -1.6 -0.3 -0.9 0.2 -5.7 1.1 -10.8 3 -16.2 7.6 -43.8 7.6 -45.2 0 -1.1 -3.2 -1.4 -17.4 -1.4 -16.6 0 -17.5 0.1 -18.1 2 -0.4 1.4 -1.5 2 -3.5 2 -3.3 0 -3.3 0 -5.5 13 -0.9 5.2 -2.2 12.9 -3 17 -1.4 7.2 -18.8 103 -24.1 132.5 -2.9 16 -2.8 23.9 0.5 30.3 2.9 5.7 7.6 10.8 12.7 13.8 8.3 4.9 13.4 5.3 57.9 5 38.3 -0.2 41.4 -0.4 47.1 -2.3z m184.4 0.7 c0 -1.6 0.7 -2 3 -2 2.3 0 3.1 -0.5 3.4 -2.2 1.6 -7.4 5.6 -29.6 5.6 -31 0 -1.7 -3.4 -1.8 -53.7 -2 l-53.8 -0.3 -0.3 -3.3 c-0.2 -1.8 0.2 -5.7 0.8 -8.7 l1.1 -5.4 46.9 -0.3 46.8 -0.3 7.4 -5 c6 -4.1 7.8 -6 10 -10.5 3.1 -6.1 3.5 -8.2 7.3 -36 1.7 -11.7 2.5 -21.7 2.2 -25.1 -0.8 -8.9 -5.5 -16.4 -12 -18.8 -1.9 -0.7 -19.9 -1.1 -53 -1.1 -56.5 0 -58.3 0.2 -69.4 7.2 -7.4 4.7 -12.5 10.3 -14.1 15.5 -0.6 2.1 -2.7 12.4 -4.6 22.8 -2 10.5 -5.3 27.8 -7.5 38.5 -2.2 10.7 -4.7 24.1 -5.6 29.6 -1.7 10 -1.7 10.3 0.3 17.1 2.4 7.9 7.1 14 13.7 17.9 8.3 4.8 13.7 5.2 71.8 5.3 53.1 0.1 53.7 0.1 53.7 -1.9z m54.3 0.1 c0.3 -1.2 1.5 -2.1 3.3 -2.3 2.9 -0.3 2.9 -0.3 5.7 -14.8 1.5 -8 5 -25.7 7.8 -39.5 2.7 -13.7 6.4 -32.1 8.1 -40.8 l3 -15.8 13.2 0.3 13.1 0.3 -0.2 5.5 c-0.1 3 -2.9 19.2 -6.2 36 -3.3 16.8 -7.6 39.1 -9.6 49.5 -2 10.5 -3.9 20 -4.2 21.3 l-0.5 2.2 16.7 0 c15.8 0 16.7 -0.1 17.2 -2 0.4 -1.4 1.4 -2 3.3 -2 3.3 0 2.6 2.4 7.5 -25.5 4.8 -27.1 8.3 -46.1 10.5 -57.5 1 -5.2 2.4 -13.7 3.1 -18.7 l1.3 -9.3 12.2 0 c6.7 0 12.9 0.3 13.8 0.6 3.2 1.2 2.8 4.1 -7.9 59.9 -2.5 13.2 -5.7 29.9 -7 37 -1.4 7.2 -2.7 14 -3 15.3 l-0.5 2.2 18.9 0 c17.8 0 19.1 -0.1 20.1 -1.9 0.5 -1.1 2.2 -2.1 3.7 -2.3 l2.7 -0.3 4.2 -25 c2.3 -13.7 5.7 -32.9 7.4 -42.5 6.1 -33.6 8.1 -45.5 8.2 -48 0 -1.5 -1.2 -5.4 -2.7 -8.8 -3.7 -8.2 -13 -17.1 -21.2 -20.2 -12.2 -4.6 -17 -4.9 -82.1 -5 -60.6 0 -61.4 0 -61.9 2 -0.4 1.4 -1.4 2 -3.2 2 l-2.8 0 -6.6 33.8 c-3.7 18.5 -7.4 37.8 -8.3 42.7 -1.6 8.7 -3.8 19.2 -10.9 53.5 -1.9 9.1 -3.5 17.3 -3.5 18.3 0 1.6 1.5 1.7 18.4 1.7 17.3 0 18.4 -0.1 18.9 -1.9z m282.7 -0.5 c7 -2.3 17.3 -8.7 22.7 -14.2 2.3 -2.5 5 -6.6 6.1 -9.6 1.7 -4.4 9.9 -48.7 15.9 -84.7 1.8 -10.8 1.1 -14.4 -3.9 -22.3 -6.4 -10.1 -17.3 -16.8 -31.5 -19.3 -10 -1.8 -73.5 -2.1 -81.5 -0.4 -12.5 2.7 -25.3 12.2 -28.7 21.3 -1.1 2.9 -2.2 7 -2.6 9.2 -1.3 8.1 -4.7 25.9 -10.5 56.2 -3.3 17.2 -6 33 -6 35 0 14.6 12 27.4 28 30.1 3 0.5 23.7 0.8 46 0.7 35.8 -0.2 41.1 -0.4 46 -2z m74.7 0.4 c0.4 -1.4 1.4 -2 3.3 -2 3.3 0 2.7 2 9.5 -33.5 2.5 -13.2 5.4 -27.8 6.4 -32.5 1.1 -4.7 3.4 -16.7 5.2 -26.7 l3.3 -18.3 30.6 0 c32.3 0 33 0.1 33 4.6 0 1.8 -2.8 17.6 -10 56.9 -0.6 3.3 -3.1 16.5 -5.6 29.3 -2.4 12.8 -4.4 23.5 -4.4 23.8 0 0.2 8.6 0.4 19.1 0.4 18.2 0 19.1 -0.1 19.6 -2 0.3 -1.3 1.4 -2 2.9 -2 1.2 0 2.6 -0.5 3 -1.1 0.6 -1.1 3.4 -16 5.4 -29.9 0.6 -3.6 2.1 -12.8 3.5 -20.5 1.4 -7.7 4.1 -23 6.1 -34 1.9 -11 4 -22.8 4.6 -26.3 1.1 -6.1 1 -6.3 -2.5 -13.6 -5.5 -10.9 -14.1 -17.8 -27.6 -22 -6.2 -1.9 -9.8 -2 -56.8 -2.4 -49.9 -0.3 -50.1 -0.3 -50.8 1.7 -0.4 1.4 -1.5 2.1 -3 2.1 -2.6 0 -3.2 1.5 -5.4 13 -0.5 3 -3.9 20.6 -7.5 39 -3.6 18.4 -7.6 39.4 -9 46.5 -2.2 11.5 -8.8 43.3 -10.1 49.3 l-0.5 2.2 18.6 0 c17.7 0 18.6 -0.1 19.1 -2z m251.9 0.9 c7.6 -1.4 16.5 -6.1 22.5 -12 5.8 -5.6 7.1 -9.6 12.2 -37.9 8.2 -45 10.1 -55 16.2 -85.5 6.8 -34.1 15.5 -78.5 15.5 -79.1 0 -0.2 -7.4 -0.4 -16.5 -0.4 -15.2 0 -16.5 0.1 -17.5 1.9 -0.5 1.1 -2.2 2.1 -3.7 2.3 -3.1 0.3 -2.8 -0.9 -9.3 31.8 -1.8 8.5 -3.6 16.9 -4.1 18.7 l-1 3.1 -39.2 0.5 c-42.1 0.5 -45.1 0.8 -55.4 6 -2.9 1.4 -7.7 4.4 -10.7 6.7 -9.7 7.3 -11.8 12 -15.5 34.9 -2.9 17.2 -7.2 42.5 -11.1 64.8 -2 11.1 -2 11.3 -0.1 16.3 5.8 15.3 19.3 25.1 38.2 27.8 9.3 1.4 72.3 1.4 79.5 0.1z m77.1 -0.9 c0.4 -1.4 1.4 -2 3.4 -2 1.6 0 2.9 -0.3 2.9 -0.7 0 -0.8 1.7 -9.9 5.9 -32.5 1.1 -5.7 5.1 -27.8 9 -49.3 3.8 -21.4 8.1 -45.2 9.5 -52.7 1.4 -7.6 2.6 -14 2.6 -14.3 0 -0.3 -7.8 -0.5 -17.4 -0.5 -16.6 0 -17.5 0.1 -18.1 2 -0.4 1.4 -1.5 2 -3.5 2 -3.3 0 -2.8 -1.5 -6.5 20.5 -1.3 8.3 -3.8 22 -5.5 30.5 -1.7 8.5 -4.8 25.9 -6.9 38.5 -3.6 21.2 -9.6 54.6 -10.5 58.8 -0.4 1.6 0.9 1.7 17.1 1.7 16.6 0 17.5 -0.1 18 -2z m144.5 -0.8 c12.1 -4.1 23.5 -13.2 27.5 -21.9 2.3 -5 6.2 -26.3 7.8 -42.5 1.1 -11.4 -3.1 -22.5 -10.3 -27 -3.7 -2.3 -4 -2.3 -46.7 -2.8 l-43 -0.5 0.1 -6.6 c0.3 -12 -5.2 -10.9 53 -10.9 l50.4 0 1 -2.5 c0.7 -1.8 1.7 -2.5 3.5 -2.5 3.1 0 3.1 0.1 5 -14 0.8 -6.3 1.8 -13.4 2.1 -15.8 l0.7 -4.3 -62.9 0.3 c-62 0.3 -63 0.3 -68.2 2.5 -7 2.8 -15.6 8.8 -18.8 13 -3 3.9 -4.9 9 -5.8 15.8 -0.4 2.8 -2.1 11.8 -3.8 20 -4.7 23.7 -4.1 31.6 3.1 39.6 l3.9 4.4 45.3 0.5 45.4 0.5 0.3 3 c0.5 3.8 -2.7 15.5 -4.2 15.6 -0.6 0.1 -22.8 0.1 -49.2 -0.1 l-48.2 -0.2 -1.1 2.1 c-0.7 1.2 -2.1 2.1 -3.6 2.1 -2.9 0 -3.6 1.3 -6 10.5 -1 3.9 -2.8 10.8 -4.1 15.4 -1.3 4.6 -2.4 8.5 -2.4 8.7 0 0.3 27.6 0.3 61.3 0.2 60.5 -0.3 61.3 -0.3 67.9 -2.6z m-112.5 -175.3 c2.8 -1.9 5.6 -4.5 6.2 -5.9 0.6 -1.4 2 -7.4 3 -13.5 l1.9 -10.9 -3.3 -3.3 -3.3 -3.3 -11.6 0 c-10.3 0 -11.9 0.2 -14.9 2.3 -1.9 1.2 -4.2 2.7 -5.2 3.2 -1.2 0.7 -2.5 4.9 -4.5 14.5 -2.5 12 -2.6 13.8 -1.4 16.2 1.9 3.8 6.1 4.8 17.9 4.4 9.5 -0.2 10.3 -0.4 15.2 -3.7z"/>
  <path d="M64 196 l-14.5 -0.5 -0.3 -5.3 c-0.3 -5.9 11.2 -68.7 13 -70.9 0.8 -1 7.8 -1.3 29.8 -1.3 15.9 0 29.5 0.3 30.4 0.6 1.2 0.5 1.6 2 1.6 5.8 0 4.4 -8.8 53.5 -12.1 67.9 l-1.1 4.7 -16.1 -0.2 c-8.9 -0.1 -22.7 -0.5 -30.7 -0.8z"/>
  <path d="M224.2 132.5 c0.3 -3.6 1.3 -7.6 2.2 -9 l1.6 -2.5 32.7 0 32.6 0 -0.6 6.3 c-0.3 3.4 -1 7.5 -1.6 9 l-1.1 2.7 -33.1 0 -33.2 0 0.5 -6.5z"/>
  <path d="M595.5 197 l-24 -0.5 -0.3 -3.9 c-0.3 -3.9 11.2 -66.6 12.7 -69.6 0.7 -1.3 5.2 -1.5 29.7 -1.8 15.9 -0.1 29.9 0 31.2 0.3 1.8 0.4 2.2 1.2 2.2 4.7 0 5.7 -13.1 70.1 -14.4 71 -0.6 0.4 -3.8 0.7 -7.1 0.6 -3.3 -0.2 -16.8 -0.5 -30 -0.8z"/>
  <path d="M923 196.3 c-23.8 -0.4 -23.9 -0.4 -24 -5.3 0 -1.9 12.1 -65.9 13.6 -71.7 0.3 -1 7 -1.3 29.6 -1.3 16.1 0 30.3 0.3 31.6 0.6 1.8 0.5 2.2 1.3 2.2 4.4 0 4.4 -11.6 66.1 -13.1 70.2 -1.3 3.1 -3.5 3.8 -11.4 3.6 -3.3 -0.2 -16.1 -0.4 -28.5 -0.5z"/>
 </g>
 <g fill="#6599ff">
  <path d="M27.2 237.5 c-10.8 -2.4 -18.4 -8.1 -23.4 -17.8 -3.4 -6.5 -3.5 -18.8 -0.4 -36.2 4.9 -27.6 22.6 -125.2 24.1 -132.5 0.8 -4.1 2.1 -11.8 3 -17 2.1 -12.8 2.2 -13 5.2 -13 1.4 0 3.1 -0.6 3.7 -1.2 0.8 -1 5.9 -1.2 20.4 -1 l19.2 0.3 0 2.5 c0 2.2 -6.8 43.9 -8.6 52.6 l-0.5 2.6 31.3 0.4 c33.7 0.5 36 0.8 47.2 6.5 10.5 5.3 20.4 19.3 21.3 30.2 0.3 2.9 -2.4 21.4 -7 49.1 -4.1 24.5 -7.8 46.7 -8.2 49.4 -0.8 5.7 -5.7 11.6 -14.9 17.9 -11.8 8 -12.4 8 -62.1 8.3 -34.8 0.2 -45.3 0 -50.3 -1.1z m74.6 -43.1 l6.1 -0.7 1 -4.6 c2.1 -8.7 12.1 -62.6 12.1 -64.7 0 -1.2 -0.7 -2.5 -1.6 -2.8 -0.9 -0.3 -13.1 -0.6 -27.3 -0.6 -26.1 0 -28.1 0.3 -28.1 3.8 0 0.8 -0.8 2.6 -1.8 4 -1.5 2.3 -7 28.4 -12.7 61.4 -0.6 3 -0.4 3.7 1.2 4.1 2.8 0.7 44.2 0.8 51.1 0.1z"/>
  <path d="M191.7 237.5 c-8.3 -1.7 -14.3 -5 -19.1 -10.7 -4.1 -4.8 -7.6 -14.6 -7.6 -21.4 0 -4.9 3.4 -24.9 7.9 -46.4 1.6 -8 4.6 -23.3 6.6 -34 4.4 -24.1 5 -26.1 9.2 -30.9 4.1 -4.8 14.3 -11.3 20.3 -13 3.4 -0.9 18.3 -1.1 59 -0.9 63.2 0.3 59.2 -0.3 64.5 10.3 2.9 5.8 3 6.4 2.9 19.5 -0.2 16.2 -5.4 55.8 -7.9 59.6 -0.8 1.3 -4.8 4.6 -8.7 7.2 l-7.1 4.7 -46.9 0.3 c-39.4 0.2 -46.8 0.5 -46.8 1.7 0 0.8 -0.7 1.8 -1.6 2.3 -0.8 0.5 -1.8 2.7 -2.1 5 l-0.6 4.2 54.2 0 54.1 0 0 4.4 c0 3.5 -3.1 22 -5.5 33.4 -0.4 1.4 -1.3 2.2 -2.5 2.2 -1.3 0 -2 0.7 -2 2 0 2 -0.6 2 -56.7 1.9 -43.5 -0.1 -58.4 -0.4 -63.6 -1.4z m92.3 -101.1 c3.3 -0.7 4.2 -2.1 5.4 -8.7 l0.7 -3.7 -29.8 0.2 -29.8 0.3 -2.7 5 c-1.5 2.8 -2.7 5.6 -2.7 6.3 -0.1 0.9 6.1 1.2 27.8 1.2 15.3 0 29.3 -0.3 31.1 -0.6z"/>
  <path d="M322 237 c0 -1.9 2.7 -15.6 10.8 -54.5 1.6 -7.7 3.7 -18 4.6 -23 0.9 -4.9 4.6 -24.2 8.3 -42.7 l6.6 -33.8 2.9 0 c1.9 0 2.8 -0.5 2.8 -1.6 0 -1.4 6.7 -1.5 65.3 -1.1 55.5 0.3 66.2 0.6 71.9 2 15.1 3.6 25.4 11.4 31 23.3 5.2 11 5.2 10 -5.8 70.4 -0.9 4.7 -2 10.8 -2.4 13.5 -1.6 9.4 -7 40 -7.6 42.8 -0.3 1.5 -1.2 2.7 -1.9 2.7 -0.8 0 -1.9 0.9 -2.5 2 -1 1.9 -2.1 2 -23 2 -12 0 -22.1 -0.3 -22.3 -0.7 -0.4 -0.8 0.6 -6.8 10.8 -59.8 9.6 -50.2 10 -52.6 8.4 -53.6 -0.8 -0.5 -5.8 -0.9 -11.1 -0.9 -7.7 0 -9.8 0.3 -9.8 1.4 0 0.8 -0.6 1.6 -1.4 1.9 -0.8 0.3 -1.6 2.9 -2 6.4 -0.6 5.6 -4.6 28.1 -12.7 72.3 -2.1 11.8 -3.9 23.1 -3.9 25.2 0 3.3 -0.3 3.8 -2.4 3.8 -1.5 0 -2.6 0.7 -2.9 2 -0.5 1.9 -1.4 2 -20.6 2 -11.1 0 -20.1 -0.3 -20.1 -0.6 0 -0.7 6.2 -33 15 -77.9 3.2 -16.5 6 -31.3 6.2 -33 l0.3 -3 -10.2 -0.3 c-8.7 -0.2 -10.3 0 -10.3 1.3 0 0.8 -0.4 1.5 -1 1.5 -0.5 0 -1.4 1.7 -1.9 3.8 -1.6 6 -18.9 93.2 -19.7 99 -0.5 4.3 -1 5.2 -2.6 5.2 -1.1 0 -2.2 0.9 -2.5 2 -0.5 1.9 -1.4 2 -22.4 2 -21.3 0 -21.9 -0.1 -21.9 -2z"/>
  <path d="M551 237.9 c-12.3 -2.1 -23.5 -11 -26.5 -21.2 -2.6 -8.7 -1.9 -16.8 4.5 -49.9 5.8 -30.3 9.2 -48.1 10.5 -56.2 2 -12.2 8.4 -20.3 21 -26.9 l6 -3.2 41 0 c45.7 0 50.5 0.5 62.1 6 11.1 5.4 19.2 15.3 22.5 27.7 1.1 3.8 0.5 8.1 -4.5 36.8 -3.2 17.9 -7 40.1 -8.6 49.3 -3.6 20.7 -4.1 21.4 -18 30.4 -12.1 7.7 -12 7.7 -61 7.9 -23.9 0.1 -46 -0.2 -49 -0.7z m78 -43.3 c1.1 -0.4 3.4 -10.1 8.4 -34.7 5.8 -28.4 6.7 -34.2 5.5 -35 -0.8 -0.5 -13.3 -0.9 -27.9 -0.9 -27.8 0 -29 0.2 -29 4.4 0 1.1 -0.6 2.7 -1.4 3.5 -0.8 0.9 -3.9 14.4 -7 30.1 -3.1 15.7 -5.8 29.5 -6.1 30.7 -0.5 2.1 -0.1 2.2 6.2 2.6 10.4 0.6 49.6 0.1 51.3 -0.7z"/>
  <path d="M679 238.5 c0 -0.2 2 -10.2 4.5 -22.2 2.5 -12 5.7 -27.6 7.1 -34.8 1.4 -7.1 5.4 -28.1 9 -46.5 3.6 -18.4 7 -36 7.5 -39 2.2 -11.5 2.8 -13 5.3 -13 1.3 0 2.6 -0.7 3 -1.5 0.5 -1.3 6.4 -1.5 44.6 -1.5 45.9 0 59.1 0.8 68.7 4.1 15.6 5.3 26.8 18.2 28.1 32.1 0.5 6.2 -0.1 10.7 -5.4 40.3 -1.9 10.5 -4.6 25.5 -6 33.5 -1.4 8 -3.4 19.4 -4.6 25.5 -1.1 6 -2 12.9 -2 15.2 0 3.8 -0.2 4.3 -2.3 4.3 -1.4 0 -2.5 0.7 -2.8 2 -0.5 1.9 -1.4 2 -23.2 2 l-22.6 0 0.7 -3.7 c0.3 -2.1 2.6 -14.4 5 -27.3 14.3 -76.1 15.2 -81.4 14.1 -82.7 -0.7 -1 -7.7 -1.3 -28.8 -1.3 -23.4 0 -27.9 0.2 -27.9 1.4 0 0.8 -0.5 1.6 -1.1 1.8 -0.6 0.2 -2.1 5.7 -3.4 12.3 -15 75.8 -17.5 89.5 -16.9 92.3 0.6 3 0.5 3.2 -2.4 3.2 -2.1 0 -3.1 0.6 -3.5 2 -0.5 1.9 -1.4 2 -22.6 2 -12.2 0 -22.1 -0.2 -22.1 -0.5z"/>
  <path d="M890.1 237.8 c-18.8 -2.7 -32.4 -12.5 -38.2 -27.7 -2.3 -6.1 -2.3 -9 -0.4 -20.1 3.3 -18.1 8.8 -50.3 11.6 -67.1 3.8 -23 5.8 -27.6 15.5 -34.9 6.4 -4.8 15.3 -9.4 20.4 -10.5 1.9 -0.4 21.6 -1.1 43.8 -1.4 45.3 -0.7 41.4 0.1 43.2 -9.1 0.6 -3 3 -14.5 5.3 -25.5 4 -19.3 4.3 -20 6.7 -20.3 1.4 -0.2 3 -0.9 3.5 -1.5 0.7 -0.9 6.2 -1.1 19.8 -0.9 l18.7 0.3 0 2.6 c0 1.4 -1.1 8 -2.4 14.7 -11.2 55.4 -22.8 115.2 -30.6 157.6 -5.5 30.4 -5.2 29.3 -11.2 34.1 -7 5.5 -13.2 8.5 -20.3 9.8 -7.1 1.3 -76 1.3 -85.4 -0.1z m66.6 -44.3 c1.2 -0.4 2.6 -1.9 3.2 -3.3 1.6 -4.4 13.3 -67.3 12.6 -68 -0.4 -0.4 -13.2 -0.8 -28.6 -1 -26.1 -0.3 -28 -0.2 -28.5 1.5 -0.3 1 -1.2 3.2 -2 4.8 -1.3 2.6 -13.4 61.6 -13.4 65 0 0.8 0.8 1.6 1.8 1.9 2.5 0.7 52.3 -0.1 54.9 -0.9z"/>
  <path d="M1010.8 238.5 c-0.2 -0.3 1.1 -8.7 2.9 -18.7 1.8 -10.1 5.4 -30 7.8 -44.3 2.5 -14.3 5.8 -33 7.5 -41.5 1.7 -8.5 4.2 -22.2 5.5 -30.5 3.7 -22 3.2 -20.5 6.5 -20.5 1.6 0 3 -0.7 3.4 -1.5 0.4 -1.3 3.6 -1.5 19.6 -1.5 16.6 0 19.1 0.2 19.7 1.6 0.4 1.2 -18.4 108.7 -26.4 150.7 -0.4 1.7 -1.2 2.7 -2.3 2.7 -1 0 -2 0.9 -2.3 2 -0.5 1.9 -1.4 2 -20.9 2 -11.3 0 -20.7 -0.2 -21 -0.5z"/>
  <path d="M1061 237.8 c0 -0.7 1.2 -5.6 2.6 -10.8 1.4 -5.2 3.4 -12.9 4.5 -17 2.8 -10.7 3.5 -12 6.3 -12 1.4 0 2.9 -0.6 3.3 -1.2 0.6 -1 11.3 -1.3 47.8 -1.3 25.9 0 48.2 -0.3 49.6 -0.7 2.1 -0.6 2.9 -1.8 4.2 -6.4 0.9 -3.1 1.4 -6.1 1.1 -6.5 -0.3 -0.5 -20.6 -0.9 -45.1 -0.9 l-44.6 0 -4.3 -4.5 c-2.5 -2.6 -4.8 -6.2 -5.6 -8.7 -2.1 -7 -1.3 -20.8 2 -37.3 1.7 -8.2 3.4 -17.2 3.8 -20 1.6 -11.1 5.1 -16.9 13.8 -22.9 11.6 -8 7.7 -7.6 80.1 -7.6 l64.5 0 0 5.3 c0 2.8 -0.9 11.3 -2 18.7 -1.1 7.4 -2 13.8 -2 14.3 0 0.4 -0.7 0.7 -1.5 0.7 -0.9 0 -2 1.1 -2.5 2.5 l-1 2.5 -50.5 0 -50.5 0 -1.1 2.8 c-0.6 1.5 -1.7 3.9 -2.5 5.4 -0.8 1.4 -1.4 3.1 -1.4 3.7 0 0.8 11.8 1.1 40.4 1.1 27.8 0 41.4 0.4 43.7 1.2 5.7 1.9 8.6 4.6 11.6 10.6 4.9 9.9 4.4 29.1 -1.3 61.4 -1.5 8.1 -1.9 9 -5.7 12.7 -6.3 6 -14.1 10.8 -21.5 13.3 -6.6 2.3 -7.2 2.3 -71.4 2.6 -52.3 0.2 -64.8 0 -64.8 -1z"/>
  <path d="M1050.3 63.9 c-3.5 -1 -6.3 -5.1 -6.3 -9 0 -2 4.5 -25.2 5.6 -29.1 0.3 -0.9 2.6 -2.8 5.1 -4.2 4.2 -2.4 5.5 -2.6 16.5 -2.6 22 0 24.3 3.1 19.8 27.5 -1.1 6 -2 10.9 -2 11 0 0.1 -2.1 1.7 -4.7 3.6 l-4.8 3.4 -13 0.2 c-7.1 0.1 -14.5 -0.2 -16.2 -0.8z"/>
 </g>
 <g fill="#030303">
  <path d="M313.5 230.3 c0.4 -2.7 1.8 -10.4 3.1 -17.1 1.3 -6.8 2.4 -13 2.4 -13.8 0 -1.2 -8.3 -1.4 -54.3 -1.4 -29.9 0 -54.6 -0.2 -54.8 -0.5 -0.3 -0.2 0.1 -3.9 1 -8 1.4 -7.3 1.5 -7.6 4 -7.3 2.3 0.3 2.6 0.7 2.2 3.8 -0.2 1.9 -0.4 4.4 -0.5 5.5 -0.1 2 0.7 2 53.9 2.5 l54 0.5 -0.2 4.1 c-0.1 3.4 -3.7 24 -5.9 34.2 -0.3 1.6 -1.2 2.2 -3 2.2 -2.6 0 -2.6 -0.1 -1.9 -4.7z"/>
  <path d="M367.6 234.2 c-0.6 -1 3.1 -21.2 13 -70.2 8.5 -42 7.9 -40 10.9 -40 1.4 0 2.5 0.4 2.5 0.9 0 0.5 -2.3 12.1 -5 25.8 -5.7 28.4 -9.7 48.5 -13.7 69.3 -2.5 13.1 -3 14.5 -5 14.8 -1.1 0.2 -2.4 -0.1 -2.7 -0.6z"/>
  <path d="M435.3 233.4 c-0.3 -0.8 1.6 -13.3 4.2 -27.7 9.6 -53.3 12.4 -69.3 13.2 -75.2 0.7 -5.6 1 -6 3.6 -6.3 2.3 -0.3 2.7 0 2.7 2 0 2.3 -2.3 16.1 -6 36.3 -1.1 6.1 -3.6 20 -5.5 31 -2 11 -4.5 24.6 -5.5 30.3 -1.1 5.7 -2 10.5 -2 10.8 0 1.2 -4.1 0.2 -4.7 -1.2z"/>
  <path d="M507 233.3 c0 -1.6 1.8 -11.9 8 -46.8 5.5 -30.9 7 -39 9.5 -53 l2.6 -15.1 -2.1 -5.5 c-6.4 -17.3 -19.3 -26.2 -42 -28.9 -4.8 -0.6 -33.7 -1 -66.8 -1 -55 0 -58.3 -0.1 -58 -1.7 0.3 -1.7 4.3 -1.8 64.3 -2.1 68.4 -0.2 73.2 0 85.8 4.8 10.9 4.1 22.2 17.4 24.3 28.5 0.5 2.8 -1.1 12.8 -8.6 54.5 -1.7 9.6 -5.1 28.8 -7.4 42.5 l-4.2 25 -2.7 0.3 c-2.1 0.3 -2.7 -0.1 -2.7 -1.5z"/>
  <path d="M726 234.2 c-1.4 -0.6 -0.9 -4 3.5 -26.7 2.9 -14.3 7.5 -38.1 10.4 -53 2.9 -14.8 5.5 -27.8 5.7 -28.7 0.6 -2.1 5.4 -2.5 5.4 -0.5 0 1.8 -5.7 32.9 -8 43.2 -1.1 5 -4 19.8 -6.5 33 -7 36.5 -6.3 34.5 -10.5 32.7z"/>
  <path d="M835.4 234.4 c-1.3 -0.5 -0.9 -3.1 8 -52.9 12.1 -68 11.8 -64.3 7 -73.6 -4.9 -9.7 -13.6 -17 -24.7 -20.8 -9.5 -3.3 -22.8 -4.1 -67.7 -4.1 -23.6 0 -43 -0.3 -43 -0.7 0.1 -3.4 0.9 -3.4 54.6 -3.1 49.8 0.4 53.3 0.5 59.5 2.4 13.3 4.1 22.1 11 27.4 21.6 4 8.1 4.4 12.5 2 24.1 -0.8 4 -2.8 15.1 -4.4 24.7 -1.7 9.6 -4.2 23.8 -5.6 31.5 -1.4 7.7 -2.9 16.9 -3.5 20.5 -2 13.9 -4.8 28.8 -5.4 29.9 -0.7 1.1 -2.2 1.3 -4.2 0.5z"/>
  <path d="M1053.9 234.5 c-0.3 -0.2 5.6 -34.1 13.1 -75.2 7.5 -41.2 13.5 -75.1 13.3 -75.5 -0.2 -0.5 -8.5 -0.8 -18.5 -0.8 -16 0 -17.9 -0.2 -17.4 -1.6 0.3 -0.9 0.6 -1.8 0.6 -2 0 -0.2 9.5 -0.4 21 -0.4 11.6 0 21 0.3 21 0.8 0 0.4 -1.4 8.1 -3.1 17.2 -1.6 9.1 -6.2 34.1 -10 55.5 -3.9 21.5 -7.9 43.6 -9 49.3 -4.2 22.6 -5.9 31.7 -5.9 32.5 0 0.8 -4.4 1 -5.1 0.2z"/>
  <path d="M994 228.7 c0 -0.3 1.1 -2.4 2.4 -4.8 1.4 -2.4 2.7 -6.2 3.1 -8.4 2.8 -16.8 17 -91.1 26.5 -139 4.5 -22.6 8.7 -44 9.5 -47.7 l1.3 -6.8 -17.2 0 c-9.5 0 -17.6 -0.3 -17.9 -0.6 -0.3 -0.4 -0.2 -1.5 0.4 -2.5 0.9 -1.8 2.4 -1.9 20.4 -1.9 10.6 0 19.6 0.4 19.9 0.9 0.6 0.8 -3.5 22.6 -15.9 84.6 -3.5 17.6 -7.8 39.7 -9.5 49 -1.7 9.4 -4.7 25.6 -6.6 36 -4.7 25.4 -6.1 30.8 -9.5 35.5 -2.4 3.3 -6.9 7 -6.9 5.7z"/>
  <path d="M667.9 224.2 c3.8 -5.3 5.1 -9.9 8.2 -27.5 1.6 -9.5 5.4 -30.9 8.3 -47.7 l5.4 -30.5 -2.1 -5.5 c-5.3 -14.5 -17.3 -24.5 -33.7 -28 -8.7 -1.9 -78.5 -2.5 -88.2 -0.7 -4.3 0.7 -7.8 1.2 -7.8 1 0 -0.9 8.2 -4.2 12.8 -5.2 8.1 -1.7 77.5 -1.4 87.5 0.4 18.1 3.2 30.5 13 35.7 28.1 1.9 5.6 1.9 5.8 0 17.3 -5.5 33.3 -14.2 81.2 -15.6 85.3 -1.8 5.6 -6.1 11.7 -9.9 14.2 l-2.8 1.9 2.2 -3.1z"/>
  <path d="M1214.2 225.3 c4.7 -5.4 6.7 -12.9 10.4 -38.3 3.8 -27 -0.4 -41.4 -13.5 -45.8 -2.4 -0.8 -16.2 -1.2 -44.9 -1.2 -35.6 0 -41.3 -0.2 -40.9 -1.4 0.3 -0.8 1.1 -3.3 1.7 -5.5 0.9 -3.3 5.6 -8.9 6.6 -7.8 0.2 0.1 -0.1 2.2 -0.7 4.5 -0.5 2.4 -0.7 4.7 -0.4 5.3 0.4 0.5 17.5 0.9 42.2 0.9 40.4 0 41.8 0.1 46.1 2.1 5.2 2.5 8.4 7.2 10.8 15.4 2 7.2 1.5 17.9 -2.1 40.4 -2.7 17.2 -5.2 23.6 -11.1 29.4 -3.9 3.7 -7.1 5.2 -4.2 2z"/>
  <path d="M146.4 222.3 c3.8 -5.9 4.9 -10.8 13 -60.4 l7.7 -46.6 -2.1 -5.5 c-5.2 -14 -14.3 -22.3 -30 -27.4 -4.6 -1.4 -10.4 -1.8 -37.4 -2.2 l-31.8 -0.4 0.6 -2.9 c0.3 -1.7 2.4 -13.7 4.6 -26.7 2.2 -13 4.2 -24.7 4.5 -25.9 l0.5 -2.3 -18.5 0 c-14.1 0 -18.5 -0.3 -18.5 -1.2 0.1 -3.7 1.2 -3.8 22.1 -3.6 l20.4 0.3 -0.1 3.5 c-0.1 3.5 -3.7 25.5 -7.2 44.2 -1.1 5.4 -1.7 10 -1.4 10.3 0.3 0.3 13.6 0.5 29.6 0.5 32.2 0 38.2 0.8 48.3 5.9 3.3 1.6 8.1 5 10.7 7.5 5.2 5.1 11.6 17.2 11.6 22.1 0 1.6 -1.1 9.5 -2.5 17.5 -1.3 8 -4.9 29.2 -7.9 47.2 -3.5 20.6 -6.3 34.5 -7.6 37.5 -2 4.5 -8.5 12.3 -10.2 12.3 -0.5 0 0.3 -1.7 1.6 -3.7z"/>
  <path d="M574.3 198.3 c-4 -0.2 -7.3 -0.5 -7.3 -0.7 0 -0.2 3 -15.4 6.6 -33.7 5.2 -26.7 7 -33.9 8.7 -35.6 2.5 -2.8 3.7 -2.9 3.7 -0.5 0 1 -2.7 15.7 -6.1 32.6 -3.3 17 -5.8 31.5 -5.5 32.2 0.4 1.1 5.1 1.4 23.3 1.5 12.5 0 24.8 0.4 27.3 0.7 l4.5 0.7 -2.5 1.8 c-2.2 1.5 -4.9 1.7 -24 1.5 -11.8 -0.1 -24.8 -0.4 -28.7 -0.5z"/>
  <path d="M1078.8 198.3 c-1.4 -0.4 -1.6 -0.8 -0.8 -2.4 1 -1.8 2.6 -1.9 41.3 -1.9 39.5 0 56.7 0.6 56.7 2 0 2.6 -6.7 3 -50.3 2.9 -24.9 -0.1 -46 -0.3 -46.9 -0.6z"/>
  <path d="M47.1 197.3 c-2.8 -0.6 -3.1 1.7 3.9 -34.8 2.9 -14.8 5.4 -28.7 5.7 -30.8 0.6 -3.9 6.3 -11.2 7 -9.1 0.2 0.7 -2.3 15.5 -5.7 32.9 -6.4 33.6 -6.7 36.3 -4.7 36.9 1.1 0.4 35.7 1.5 48.2 1.6 l6 0.1 -2.4 1.9 c-2.2 1.9 -3.8 2 -29 1.9 -14.6 -0.1 -27.7 -0.4 -29 -0.6z"/>
  <path d="M898.3 197 c-1.3 -0.5 -2.3 -1.5 -2.3 -2.2 0 -0.7 3 -16.6 6.7 -35.3 6 -30.4 7 -34.3 9.3 -36.5 l2.5 -2.5 0.3 3 c0.1 1.7 -2.6 17.4 -6.2 34.9 -3.5 17.5 -6.2 32.5 -5.9 33.2 0.4 1.1 4.7 1.4 20.7 1.4 11 0 23.1 0.3 26.9 0.7 6.5 0.6 6.7 0.6 4.5 2.2 -2 1.4 -6.3 1.6 -28.3 1.8 -14.4 0.1 -27 -0.2 -28.2 -0.7z"/>
  <path d="M321.2 174.3 c4.5 -9.1 5.2 -11.8 8 -32.1 1.7 -12 3.1 -26.4 3.2 -32.2 0.1 -9.8 -0.1 -10.9 -2.9 -16.5 -5.3 -10.5 -1.8 -10 -61.5 -10.3 -47.7 -0.3 -60.4 0.2 -66.7 2.5 -1.2 0.4 -1 0 0.7 -1.4 1.4 -1.1 5.5 -2.8 9.1 -3.7 5.6 -1.4 13.8 -1.6 59.6 -1.6 35.2 0 54.1 0.4 56 1.1 3.8 1.4 7.1 4.6 9.6 9.4 3.2 5.9 3 21.5 -0.7 47.5 -2.9 20.6 -5 28.6 -8.7 33.4 -2 2.5 -6.6 5.7 -5.7 3.9z"/>
  <path d="M220.3 138.6 c0.3 -0.8 1.1 -3.3 1.7 -5.5 0.9 -3.5 5.6 -8.8 6.7 -7.7 0.3 0.2 0 2.1 -0.6 4.3 -0.6 2.1 -1.1 4.4 -1.1 5.1 0 0.9 6.7 1.2 30.1 1.2 28.1 0 30 0.1 29.7 1.8 -0.3 1.6 -2.8 1.7 -33.7 2 -28.8 0.2 -33.2 0 -32.8 -1.2z"/>
  <path d="M1239.7 103.3 c1.2 -8.7 2.3 -16.8 2.3 -18.1 l0 -2.3 -65.2 0.3 c-45.2 0.3 -66.3 0.7 -68.5 1.5 -5.7 2 -3.6 -0.4 2.5 -2.9 l5.7 -2.3 66.3 -0.3 c52.3 -0.2 66.2 0 66.2 1 0 0.7 -0.7 5.5 -1.5 10.8 -0.8 5.2 -2.1 13.6 -2.7 18.5 -1.3 9 -1.3 9 -4.4 9.3 l-3 0.3 2.3 -15.8z"/>
  <path d="M886.6 82.9 c0.8 -1.3 6.9 -3.9 13.4 -5.7 4.3 -1.2 13.9 -1.6 44.8 -1.9 l39.2 -0.5 0 2.1 c0 2.1 -0.3 2.1 -29.2 2.1 -34.1 0.1 -57.3 1.3 -64 3.3 -2.7 0.8 -4.5 1.1 -4.2 0.6z"/>
  <path d="M1087.8 44.6 c2.4 -13.9 2.4 -14.6 0.8 -17.1 -2.9 -4.4 -7.2 -5.5 -20.7 -5.5 -12.1 0 -12.2 0 -10.4 -2 1.7 -1.8 3.1 -2 16.8 -2 l14.9 0 3.4 3.4 c1.9 1.9 3.4 4.4 3.4 5.6 0 4 -4.1 26.3 -5.2 28.4 -0.6 1.2 -1.6 2.4 -2.2 2.8 -3.1 2.1 -3.2 0.4 -0.8 -13.6z"/>
  <path d="M1251.5 51.6 c-6 -2.6 -11.5 -11.3 -11.5 -18.1 0 -3.9 2.1 -9.5 4.7 -12.6 10.1 -12 30.9 -7.1 34.2 8 2.1 9.8 -1.9 18.5 -10.6 23 -2.9 1.5 -13.1 1.3 -16.8 -0.3z m16.7 -3.2 c3.2 -1.7 6.1 -5.6 7.8 -10.7 2.3 -7.4 -2 -16.1 -9.7 -19.3 -9.3 -4 -19.7 1.4 -22.2 11.3 -1.5 5.6 -0.2 10.5 3.9 15.5 4.5 5.5 12.9 6.8 20.2 3.2z"/>
  <path d="M1252.7 42.3 c-0.9 -0.8 -0.9 -15.6 -0.1 -17.7 0.9 -2.4 12.5 -2.2 14.7 0.2 2.3 2.5 2.1 5.7 -0.4 8.1 l-2.1 2 2.1 2.7 c1.1 1.5 2.1 3.3 2.1 4 0 2.8 -3.6 1.2 -6.2 -2.6 -3.2 -4.5 -5.8 -5.3 -5.8 -1.6 0 4.6 -2.2 7.1 -4.3 4.9z m11.2 -12.2 c1.3 -2.4 0.5 -3.1 -3.5 -3.1 -3.5 0 -4.9 1.2 -4 3.5 0.8 2.2 6.3 1.9 7.5 -0.4z"/>
 </g>
</svg>