<?xml version="1.0" encoding="utf-8"?>
<!DOCTYPE svg PUBLIC "-//W3C//DTD SVG 1.0//EN" "http://www.w3.org/TR/2001/REC-SVG-20010904/DTD/svg10.dtd">
<svg version="1.0" xmlns="http://www.w3.org/2000/svg" width="256px" height="256px" viewBox="0 0 256 256" preserveAspectRatio="xMidYMid meet">
 <g fill="#ffffff">
  <path d="M0 128 l0 -128 128 0 128 0 0 128 0 128 -128 0 -128 0 0 -128z m154 124.1 c0 -0.4 2.8 -1.1 6.3 -1.4 8.7 -0.9 17.9 -4.2 25.6 -9.5 17.4 -11.7 18.1 -13.4 25.2 -58.2 1.7 -10.7 4.1 -25.3 5.4 -32.5 1.3 -7.1 3.1 -20.1 4.1 -28.7 l1.7 -15.7 -3.2 -6.6 c-4.4 -8.8 -12 -16.4 -21.3 -20.9 -12.1 -6 -17 -6.6 -55 -6.6 l-33.8 0 0 -5.2 c0 -2.9 0.7 -8.9 1.5 -13.3 3.1 -15.6 7.5 -42.8 7.5 -45.6 l0 -2.9 -20.1 0 c-19.2 0 -20.1 0.1 -20.6 2 -0.4 1.5 -1.4 2 -3.8 2 -3.8 0 -3.3 -1.2 -6.4 16.5 -1.9 10.7 -3.9 21.9 -10.1 55.5 -1.7 9.1 -5.5 30.2 -8.5 47 -3 16.8 -6.4 35 -7.5 40.5 -4 20 -8 46.6 -7.5 49.3 2.2 10.3 4.1 14.7 8.8 19.9 2.7 2.9 6.8 6.4 9.1 7.8 4.6 2.6 14.7 5.5 19.5 5.5 1.7 0 3.1 0.5 3.1 1 0 0.7 14 1 40 1 22 0 40 -0.4 40 -0.9z"/>
  <path d="M110.5 206 c-13.7 -0.4 -25.1 -0.7 -25.2 -0.8 -1.1 -0.8 0.1 -13.2 2.2 -24.3 1.4 -7.4 4.4 -22.8 6.6 -34.4 2.2 -11.5 4.2 -22.3 4.5 -24 0.4 -1.6 1.1 -3.6 1.6 -4.2 1.5 -1.8 67.8 -1.9 69.6 -0.1 2 2 1.4 8.3 -3.3 32.8 -2.5 12.9 -5.7 29.8 -7.1 37.5 -1.4 7.7 -3 15 -3.5 16.2 -1 2.6 3.8 2.5 -45.4 1.3z"/>
 </g>
 <g fill="#669aff">
  <path d="M66.5 254 c-13.2 -2 -19.7 -5.2 -27.1 -13.3 -5.4 -5.9 -8 -12.3 -9 -22.3 -0.6 -5.8 2.6 -27.6 7.6 -52.9 1.1 -5.5 4.5 -23.7 7.5 -40.5 3 -16.8 6.8 -37.9 8.5 -47 6.2 -33.6 8.2 -44.8 10.1 -55.5 3.1 -17.7 2.6 -16.5 6.5 -16.5 2 0 3.4 -0.5 3.4 -1.2 0 -1 5.1 -1.3 22.3 -1.3 l22.2 0 0.3 2.5 c0.2 1.4 -0.9 9.3 -2.3 17.5 -4.5 25.7 -7.5 44 -7.5 45.2 0 0.8 9.3 1.2 34.3 1.6 37.5 0.5 41.2 1 53.6 6.9 12.4 5.9 23.6 20.6 25.7 33.6 0.5 3 -1.8 19.1 -8.1 56.9 -4.7 29 -9.1 55.2 -9.7 58.1 -1.2 6.7 -4.9 11 -15.2 18 -8.5 5.7 -16.8 8.8 -27.6 10.2 -8.7 1.1 -88.1 1.1 -95.5 0z m79.4 -49.7 c7.5 -0.7 6.9 0.2 10.4 -18.3 1.4 -7.4 4.6 -24.6 7.2 -38.3 3.8 -20 4.5 -25 3.5 -26.2 -1.1 -1.3 -5.9 -1.5 -31.9 -1.5 -31.7 0 -33.1 0.2 -33.1 4.1 0 0.9 -0.9 2.8 -2 4.2 -1.9 2.4 -5.1 17.5 -13.1 61.2 -1.1 6.1 -2.2 11.8 -2.5 12.7 -0.4 1.2 0.2 1.8 2.3 2.1 4.7 0.7 52.6 0.7 59.2 0z"/>
 </g>
 <g fill="#020203">
  <path d="M198 232.7 c2.2 -4.3 4.1 -9.6 4.5 -12.8 0.4 -3 4.5 -28 9.1 -55.7 8.2 -49.7 8.3 -50.4 6.7 -55 -6 -17.8 -18.2 -28.8 -37.4 -33.8 -5.1 -1.3 -13.2 -1.8 -41.1 -2.1 -27.6 -0.4 -34.8 -0.8 -34.8 -1.8 0 -0.7 1.3 -9.1 3 -18.6 6.1 -35.8 7.2 -42.4 7.3 -44.3 0.2 -1.8 -0.8 -1.9 -20.3 -2 -19.8 -0.1 -20.5 -0.2 -20.5 -2.1 0 -1.9 0.8 -2 24.5 -2.3 18.3 -0.2 24.1 0.1 23.3 0.9 -0.6 0.6 -0.9 1.7 -0.6 2.4 0.4 1.3 -3.7 27.5 -7.7 48.5 -1.1 5.8 -2 11.5 -2 12.7 l0 2.3 33.8 0 c36.5 0 42.4 0.6 52.9 5.5 12 5.5 21 14.7 25.2 25.9 1.9 5.2 1.9 5.3 -0.4 24.9 -1.3 10.8 -3.3 24.8 -4.4 30.9 -1.2 6.2 -3.5 19.9 -5.1 30.3 -6 38.3 -6.9 41.3 -14.9 49.8 -1.9 2 -3.8 3.7 -4.2 3.7 -0.4 0 1 -3.3 3.1 -7.3z"/>
  <path d="M83.5 207.1 c-3.5 -0.8 -3.5 0.2 -0.1 -18.1 11.8 -62.6 11.5 -61.3 14.6 -64.4 1.6 -1.7 3.2 -2.7 3.6 -2.4 0.3 0.4 -0.8 8 -2.6 17 -10.1 52.6 -11.6 61.5 -10.6 62.5 0.4 0.5 13.4 1.1 28.9 1.4 15.5 0.4 29.6 0.7 31.2 0.8 l3 0.2 -2.4 1.9 c-2.2 1.9 -3.9 2 -32.5 1.9 -16.5 -0.1 -31.4 -0.4 -33.1 -0.8z"/>
 </g>
</svg>